<?xml version="1.0" standalone="no"?>
<!DOCTYPE svg PUBLIC "-//W3C//DTD SVG 20010904//EN"
 "http://www.w3.org/TR/2001/REC-SVG-20010904/DTD/svg10.dtd">
<svg version="1.0" xmlns="http://www.w3.org/2000/svg"
 width="192.000000pt" height="192.000000pt" viewBox="0 0 192.000000 192.000000"
 preserveAspectRatio="xMidYMid meet">
<metadata>
Created by potrace 1.16, written by Peter Selinger 2001-2019
</metadata>
<g transform="translate(0.000000,192.000000) scale(0.100000,-0.100000)"
fill="#000000" stroke="none">
<path d="M450 1130 l0 -500 495 0 495 0 0 500 0 500 -192 -1 -193 0 -114 -137
-114 -137 166 -3 167 -2 0 -220 0 -220 -215 0 -215 0 0 360 0 360 -140 0 -140
0 0 -500z"/>
<path d="M450 390 l0 -100 53 0 c29 0 60 6 69 13 24 18 30 51 14 72 -9 12 -12
32 -9 52 8 48 -10 63 -73 63 l-54 0 0 -100z"/>
<path d="M620 390 l0 -100 60 0 c57 0 60 1 60 25 0 22 -4 25 -35 25 -24 0 -35
5 -35 15 0 10 10 15 30 15 23 0 30 4 30 20 0 16 -7 20 -30 20 -42 0 -40 28 3
32 24 2 33 8 35 26 3 21 0 22 -57 22 l-61 0 0 -100z"/>
<path d="M770 390 c0 -99 0 -100 24 -100 21 0 25 6 28 33 l3 32 20 -32 c14
-25 26 -33 47 -33 34 0 35 3 2 46 -24 31 -25 36 -11 47 9 7 19 24 22 39 10 41
-23 68 -85 68 l-50 0 0 -100z"/>
<path d="M940 390 l0 -100 25 0 c23 0 25 3 25 53 l0 52 37 -52 c26 -38 43 -53
60 -53 23 0 23 2 23 100 0 99 0 100 -24 100 -23 0 -25 -4 -28 -52 l-3 -51 -35
51 c-25 37 -42 52 -57 52 -22 0 -23 -3 -23 -100z"/>
<path d="M1150 390 l0 -100 55 0 c52 0 55 1 55 25 0 22 -4 25 -35 25 -24 0
-35 5 -35 15 0 10 10 15 30 15 41 0 44 37 3 42 -42 5 -41 28 1 28 32 0 36 3
36 25 0 24 -3 25 -55 25 l-55 0 0 -100z"/>
<path d="M1290 390 l0 -100 25 0 c22 0 25 4 25 38 l0 37 22 -37 c18 -32 27
-38 55 -38 l34 0 -27 36 c-27 34 -27 36 -11 64 36 60 6 100 -73 100 l-50 0 0
-100z"/>
</g>
</svg>
